<svg width="196" height="38" viewBox="0 0 196 38" fill="none" xmlns="http://www.w3.org/2000/svg">
<g clip-path="url(#clip0_155_185)">
<path d="M8.00511 37.1898H0V0.807007H17.9093C24.5638 0.807007 30.0168 6.2127 30.0168 12.9346C30.0168 19.6565 24.5638 25.0622 17.9093 25.0622H8.00511V37.1898ZM8.00511 17.7863H17.5098C19.71 17.7863 22.0117 15.6118 22.0117 12.9346C22.0117 10.2574 19.71 8.08292 17.5098 8.08292H8.00511V17.7863Z" fill="url(#paint0_linear_155_185)"/>
<path d="M31.6401 19C31.6401 8.48963 40.3427 0 51.1504 0C61.9581 0 70.6607 8.48963 70.6607 19C70.6607 29.5104 61.9074 38 51.1504 38C40.3934 38 31.6401 29.5104 31.6401 19ZM51.1504 7.27591C44.7971 7.27591 39.6452 12.5311 39.6452 19C39.6452 25.4689 44.7971 30.7241 51.1504 30.7241C57.5038 30.7241 62.6556 25.4689 62.6556 19C62.6556 12.5311 57.5038 7.27591 51.1504 7.27591Z" fill="url(#paint1_linear_155_185)"/>
<path d="M80.5427 37.1898H72.5376V0.807007H80.5427V37.1898Z" fill="url(#paint2_linear_155_185)"/>
<path d="M116.282 37.1898H108.778L90.6687 13.3893V37.1898H82.6636V0.807007H90.0663L108.277 24.8092V0.807007H116.282V37.1898Z" fill="url(#paint3_linear_155_185)"/>
<path d="M118.412 0.807007H147.227V8.08292H136.822V37.1898H128.817V8.08612H118.412V0.807007Z" fill="url(#paint4_linear_155_185)"/>
<path d="M151.799 0.810211L148.698 20.6685L155.252 21.8822C156.951 20.5692 158.752 19.9127 161.104 19.9127C164.056 19.9127 166.456 22.3369 166.456 25.3184C166.456 28.2998 164.056 30.7241 161.104 30.7241C158.352 30.7241 156.101 28.6009 155.8 25.9236H148.045C148.347 32.6455 154.05 38 161.101 38C168.152 38 174.207 32.3413 174.207 25.3184C174.207 18.2955 168.304 12.6368 161.101 12.6368C159.551 12.6368 158 12.8385 156.548 13.194L157.398 7.68582H187.396L175.291 37.1962H183.994L196 6.37283V0.810211H151.796H151.799Z" fill="#1E252D"/>
</g>
<defs>
<linearGradient id="paint0_linear_155_185" x1="3.10059" y1="17.0721" x2="119.064" y2="49.7465" gradientUnits="userSpaceOnUse">
<stop stop-color="#FBB355"/>
<stop offset="1" stop-color="#F16825"/>
</linearGradient>
<linearGradient id="paint1_linear_155_185" x1="5.61797" y1="5.91168" x2="121.582" y2="38.586" gradientUnits="userSpaceOnUse">
<stop stop-color="#FBB355"/>
<stop offset="1" stop-color="#F16825"/>
</linearGradient>
<linearGradient id="paint2_linear_155_185" x1="8.10041" y1="-0.675715" x2="124.067" y2="31.9986" gradientUnits="userSpaceOnUse">
<stop stop-color="#FBB355"/>
<stop offset="1" stop-color="#F16825"/>
</linearGradient>
<linearGradient id="paint3_linear_155_185" x1="9.23846" y1="-6.94287" x2="125.205" y2="25.7315" gradientUnits="userSpaceOnUse">
<stop stop-color="#FBB355"/>
<stop offset="1" stop-color="#F16825"/>
</linearGradient>
<linearGradient id="paint4_linear_155_185" x1="12.7097" y1="-17.0273" x2="128.673" y2="15.647" gradientUnits="userSpaceOnUse">
<stop stop-color="#FBB355"/>
<stop offset="1" stop-color="#F16825"/>
</linearGradient>
<clipPath id="clip0_155_185">
<rect width="196" height="38" fill="white"/>
</clipPath>
</defs>
</svg>
