<svg preserveAspectRatio="none" viewBox="0 0 1061 170" fill="none" xmlns="http://www.w3.org/2000/svg">
<g filter="url(#filter0_b_155_133)">
<path d="M89.2912 40C89.2912 17.9086 107.2 0 129.291 0H931.9C953.992 0 971.9 17.9086 971.9 40V45C971.9 67.0914 989.809 85 1011.9 85H1032H0H49.2912C71.3826 85 89.2912 67.0914 89.2912 45V40Z" fill="url(#paint0_linear_155_133)"/>
</g>
<g filter="url(#filter1_b_155_133)">
<path d="M971.709 130C971.709 152.091 953.8 170 931.709 170L129.1 170C107.008 170 89.0999 152.091 89.0999 130L89.0998 125C89.0998 102.909 71.1912 85.0001 49.0998 85.0001L29 85.0001L1061 85L1011.71 85C989.617 85 971.709 102.909 971.709 125L971.709 130Z" fill="url(#paint1_linear_155_133)"/>
</g>
<defs>
<filter id="filter0_b_155_133" x="-8" y="-8" width="1048" height="101" filterUnits="userSpaceOnUse" color-interpolation-filters="sRGB">
<feFlood flood-opacity="0" result="BackgroundImageFix"/>
<feGaussianBlur in="BackgroundImageFix" stdDeviation="4"/>
<feComposite in2="SourceAlpha" operator="in" result="effect1_backgroundBlur_155_133"/>
<feBlend mode="normal" in="SourceGraphic" in2="effect1_backgroundBlur_155_133" result="shape"/>
</filter>
<filter id="filter1_b_155_133" x="21" y="77" width="1048" height="101" filterUnits="userSpaceOnUse" color-interpolation-filters="sRGB">
<feFlood flood-opacity="0" result="BackgroundImageFix"/>
<feGaussianBlur in="BackgroundImageFix" stdDeviation="4"/>
<feComposite in2="SourceAlpha" operator="in" result="effect1_backgroundBlur_155_133"/>
<feBlend mode="normal" in="SourceGraphic" in2="effect1_backgroundBlur_155_133" result="shape"/>
</filter>
<linearGradient id="paint0_linear_155_133" x1="530.596" y1="-20" x2="530.596" y2="85" gradientUnits="userSpaceOnUse">
<stop stop-color="white"/>
<stop offset="1" stop-color="white"/>
</linearGradient>
<linearGradient id="paint1_linear_155_133" x1="530.404" y1="190" x2="530.404" y2="85" gradientUnits="userSpaceOnUse">
<stop stop-color="white"/>
<stop offset="1" stop-color="white"/>
</linearGradient>
</defs>
</svg>
