<svg width="1582" height="265" viewBox="0 0 1582 265" fill="none" xmlns="http://www.w3.org/2000/svg">
<path opacity="0.05" d="M0.338146 261V3.98581H101.738C121.232 3.98581 137.839 7.70884 151.56 15.1549C165.281 22.5173 175.739 32.766 182.934 45.9012C190.212 58.9527 193.852 74.0121 193.852 91.0795C193.852 108.147 190.171 123.206 182.808 136.258C175.446 149.309 164.779 159.474 150.807 166.753C136.919 174.032 120.102 177.671 100.358 177.671H35.7278V134.124H91.5732C102.031 134.124 110.648 132.326 117.425 128.728C124.286 125.047 129.389 119.985 132.736 113.543C136.166 107.017 137.881 99.5295 137.881 91.0795C137.881 82.5458 136.166 75.0998 132.736 68.7413C129.389 62.2992 124.286 57.3213 117.425 53.8074C110.565 50.2099 101.864 48.4111 91.3222 48.4111H54.6776V261H0.338146ZM465.329 132.493C465.329 160.52 460.017 184.364 449.391 204.025C438.85 223.686 424.46 238.704 406.221 249.078C388.066 259.369 367.652 264.514 344.979 264.514C322.139 264.514 301.642 259.327 283.487 248.952C265.332 238.578 250.983 223.561 240.442 203.9C229.9 184.239 224.629 160.437 224.629 132.493C224.629 104.466 229.9 80.6216 240.442 60.9606C250.983 41.2997 265.332 26.324 283.487 16.0334C301.642 5.65908 322.139 0.471942 344.979 0.471942C367.652 0.471942 388.066 5.65908 406.221 16.0334C424.46 26.324 438.85 41.2997 449.391 60.9606C460.017 80.6216 465.329 104.466 465.329 132.493ZM410.237 132.493C410.237 114.338 407.518 99.0275 402.08 86.5617C396.725 74.0958 389.154 64.6418 379.365 58.1998C369.576 51.7577 358.115 48.5366 344.979 48.5366C331.844 48.5366 320.382 51.7577 310.594 58.1998C300.805 64.6418 293.192 74.0958 287.754 86.5617C282.399 99.0275 279.722 114.338 279.722 132.493C279.722 150.648 282.399 165.958 287.754 178.424C293.192 190.89 300.805 200.344 310.594 206.786C320.382 213.228 331.844 216.449 344.979 216.449C358.115 216.449 369.576 213.228 379.365 206.786C389.154 200.344 396.725 190.89 402.08 178.424C407.518 165.958 410.237 150.648 410.237 132.493ZM559.921 3.98581V261H505.582V3.98581H559.921ZM819.602 3.98581V261H772.667L660.851 99.2367H658.968V261H604.629V3.98581H652.317L763.255 165.624H765.514V3.98581H819.602ZM854.709 48.7876V3.98581H1065.79V48.7876H987.107V261H933.395V48.7876H854.709ZM1274.71 264.514C1256.97 264.514 1241.16 261.251 1227.27 254.725C1213.47 248.199 1202.51 239.206 1194.39 227.744C1186.28 216.282 1182.05 203.147 1181.72 188.338H1234.43C1235.01 198.294 1239.2 206.368 1246.98 212.559C1254.76 218.75 1264 221.845 1274.71 221.845C1283.24 221.845 1290.77 219.963 1297.3 216.198C1303.91 212.35 1309.05 207.037 1312.74 200.26C1316.5 193.4 1318.38 185.536 1318.38 176.667C1318.38 167.632 1316.46 159.684 1312.61 152.823C1308.85 145.963 1303.62 140.608 1296.92 136.76C1290.23 132.911 1282.57 130.945 1273.96 130.861C1266.43 130.861 1259.11 132.409 1252 135.505C1244.97 138.6 1239.49 142.825 1235.56 148.18L1187.24 139.521L1199.41 3.98581H1356.53V48.4111H1244.22L1237.56 112.79H1239.07C1243.59 106.432 1250.41 101.161 1259.53 96.9778C1268.64 92.7946 1278.85 90.703 1290.15 90.703C1305.62 90.703 1319.43 94.3424 1331.56 101.621C1343.69 108.9 1353.27 118.898 1360.3 131.614C1367.33 144.248 1370.8 158.805 1370.71 175.287C1370.8 192.605 1366.78 207.999 1358.67 221.469C1350.64 234.855 1339.38 245.397 1324.91 253.094C1310.52 260.707 1293.79 264.514 1274.71 264.514ZM1418.78 261L1525.32 50.168V48.4111H1401.21V3.98581H1581.55V49.0386L1474.88 261H1418.78Z" fill="#1E252D"/>
</svg>
